<mxfile host="app.diagrams.net" modified="2023-07-11T17:54:11.449Z" agent="Mozilla/5.0 (X11; Linux x86_64) AppleWebKit/537.36 (KHTML, like Gecko) Chrome/111.0.0.0 Safari/537.36" etag="eAPAC1d4uMkjRSpq06qZ" version="21.6.2" type="github">
  <diagram name="第 1 页" id="NUxDLC7CcFFGVshqn-1u">
    <mxGraphModel dx="1659" dy="860" grid="1" gridSize="10" guides="1" tooltips="1" connect="1" arrows="1" fold="1" page="1" pageScale="1" pageWidth="827" pageHeight="1169" math="0" shadow="0">
      <root>
        <mxCell id="0" />
        <mxCell id="1" parent="0" />
        <mxCell id="8X_-OS3C_n1zWFdyqqBd-10" value="" style="rounded=1;whiteSpace=wrap;html=1;fillColor=#D4E1F5;fillStyle=auto;glass=0;" vertex="1" parent="1">
          <mxGeometry x="85" y="60" width="455" height="110" as="geometry" />
        </mxCell>
        <mxCell id="EeiDZIce7VBrEbFo4yMd-65" value="" style="rounded=1;whiteSpace=wrap;html=1;fillColor=#D4E1F5;fillStyle=auto;glass=0;" parent="1" vertex="1">
          <mxGeometry x="80" y="190" width="860" height="230" as="geometry" />
        </mxCell>
        <mxCell id="EeiDZIce7VBrEbFo4yMd-12" style="edgeStyle=orthogonalEdgeStyle;rounded=0;orthogonalLoop=1;jettySize=auto;html=1;exitX=1;exitY=0.5;exitDx=0;exitDy=0;entryX=0;entryY=0.5;entryDx=0;entryDy=0;" parent="1" source="EeiDZIce7VBrEbFo4yMd-1" target="EeiDZIce7VBrEbFo4yMd-5" edge="1">
          <mxGeometry relative="1" as="geometry" />
        </mxCell>
        <mxCell id="EeiDZIce7VBrEbFo4yMd-1" value="CBS" style="rounded=0;whiteSpace=wrap;html=1;fillColor=#d5e8d4;strokeColor=#82b366;" parent="1" vertex="1">
          <mxGeometry x="150" y="240" width="70" height="30" as="geometry" />
        </mxCell>
        <mxCell id="EeiDZIce7VBrEbFo4yMd-2" value="CBS" style="rounded=0;whiteSpace=wrap;html=1;fillColor=#d5e8d4;strokeColor=#82b366;" parent="1" vertex="1">
          <mxGeometry x="790" y="240" width="70" height="30" as="geometry" />
        </mxCell>
        <mxCell id="EeiDZIce7VBrEbFo4yMd-5" value="&lt;font style=&quot;vertical-align: inherit;&quot;&gt;&lt;font style=&quot;vertical-align: inherit;&quot;&gt;Chunk&lt;/font&gt;&lt;/font&gt;" style="shape=lineEllipse;line=vertical;perimeter=ellipsePerimeter;whiteSpace=wrap;html=1;backgroundOutline=1;fillColor=#e6d0de;gradientColor=#d5739d;strokeColor=#996185;" parent="1" vertex="1">
          <mxGeometry x="250" y="235" width="40" height="40" as="geometry" />
        </mxCell>
        <mxCell id="EeiDZIce7VBrEbFo4yMd-9" value="Cat" style="shape=cube;whiteSpace=wrap;html=1;boundedLbl=1;backgroundOutline=1;darkOpacity=0.05;darkOpacity2=0.1;fillColor=#fff2cc;strokeColor=#d6b656;" parent="1" vertex="1">
          <mxGeometry x="680" y="235" width="80" height="40" as="geometry" />
        </mxCell>
        <mxCell id="EeiDZIce7VBrEbFo4yMd-11" value="" style="endArrow=classic;html=1;rounded=0;exitX=1;exitY=0.5;exitDx=0;exitDy=0;entryX=0;entryY=0.5;entryDx=0;entryDy=0;" parent="1" source="EeiDZIce7VBrEbFo4yMd-5" edge="1">
          <mxGeometry width="50" height="50" relative="1" as="geometry">
            <mxPoint x="290" y="270" as="sourcePoint" />
            <mxPoint x="320" y="255" as="targetPoint" />
            <Array as="points">
              <mxPoint x="300" y="255" />
            </Array>
          </mxGeometry>
        </mxCell>
        <mxCell id="EeiDZIce7VBrEbFo4yMd-13" value="" style="endArrow=classic;html=1;rounded=0;exitX=1;exitY=0.5;exitDx=0;exitDy=0;entryX=0;entryY=0.5;entryDx=0;entryDy=0;" parent="1" edge="1">
          <mxGeometry width="50" height="50" relative="1" as="geometry">
            <mxPoint x="390" y="255" as="sourcePoint" />
            <mxPoint x="424" y="255" as="targetPoint" />
          </mxGeometry>
        </mxCell>
        <mxCell id="EeiDZIce7VBrEbFo4yMd-14" value="" style="endArrow=classic;html=1;rounded=0;exitX=1;exitY=0.5;exitDx=0;exitDy=0;" parent="1" target="EeiDZIce7VBrEbFo4yMd-9" edge="1">
          <mxGeometry width="50" height="50" relative="1" as="geometry">
            <mxPoint x="630" y="255" as="sourcePoint" />
            <mxPoint x="440" y="340" as="targetPoint" />
          </mxGeometry>
        </mxCell>
        <mxCell id="EeiDZIce7VBrEbFo4yMd-15" value="" style="endArrow=classic;html=1;rounded=0;exitX=0;exitY=0;exitDx=80;exitDy=20;exitPerimeter=0;" parent="1" source="EeiDZIce7VBrEbFo4yMd-9" target="EeiDZIce7VBrEbFo4yMd-2" edge="1">
          <mxGeometry width="50" height="50" relative="1" as="geometry">
            <mxPoint x="390" y="390" as="sourcePoint" />
            <mxPoint x="440" y="340" as="targetPoint" />
          </mxGeometry>
        </mxCell>
        <mxCell id="EeiDZIce7VBrEbFo4yMd-17" value="" style="edgeStyle=elbowEdgeStyle;elbow=horizontal;endArrow=classic;html=1;curved=0;rounded=0;endSize=8;startSize=8;entryX=0.915;entryY=1.005;entryDx=0;entryDy=0;entryPerimeter=0;exitX=0;exitY=1;exitDx=0;exitDy=0;" parent="1" source="EeiDZIce7VBrEbFo4yMd-5" target="EeiDZIce7VBrEbFo4yMd-9" edge="1">
          <mxGeometry width="50" height="50" relative="1" as="geometry">
            <mxPoint x="484" y="394" as="sourcePoint" />
            <mxPoint x="760" y="290" as="targetPoint" />
            <Array as="points">
              <mxPoint x="510" y="410" />
            </Array>
          </mxGeometry>
        </mxCell>
        <mxCell id="EeiDZIce7VBrEbFo4yMd-19" value="" style="endArrow=classic;html=1;rounded=0;exitX=1;exitY=0.5;exitDx=0;exitDy=0;dashed=1;" parent="1" edge="1">
          <mxGeometry width="50" height="50" relative="1" as="geometry">
            <mxPoint x="494" y="255" as="sourcePoint" />
            <mxPoint x="520" y="255" as="targetPoint" />
          </mxGeometry>
        </mxCell>
        <mxCell id="EeiDZIce7VBrEbFo4yMd-20" value="" style="endArrow=classic;html=1;rounded=0;entryX=0;entryY=0.5;entryDx=0;entryDy=0;dashed=1;" parent="1" edge="1">
          <mxGeometry width="50" height="50" relative="1" as="geometry">
            <mxPoint x="530" y="255" as="sourcePoint" />
            <mxPoint x="560" y="255" as="targetPoint" />
          </mxGeometry>
        </mxCell>
        <mxCell id="EeiDZIce7VBrEbFo4yMd-22" value="y0" style="text;strokeColor=none;align=center;fillColor=none;html=1;verticalAlign=middle;whiteSpace=wrap;rounded=0;" parent="1" vertex="1">
          <mxGeometry x="230" y="280" width="20" height="20" as="geometry" />
        </mxCell>
        <mxCell id="EeiDZIce7VBrEbFo4yMd-23" value="y1" style="text;strokeColor=none;align=center;fillColor=none;html=1;verticalAlign=middle;whiteSpace=wrap;rounded=0;" parent="1" vertex="1">
          <mxGeometry x="290" y="230" width="20" height="20" as="geometry" />
        </mxCell>
        <mxCell id="EeiDZIce7VBrEbFo4yMd-24" value="" style="edgeStyle=elbowEdgeStyle;elbow=horizontal;endArrow=classic;html=1;curved=0;rounded=0;endSize=8;startSize=8;entryX=0.742;entryY=0.995;entryDx=0;entryDy=0;entryPerimeter=0;" parent="1" source="EeiDZIce7VBrEbFo4yMd-29" target="EeiDZIce7VBrEbFo4yMd-9" edge="1">
          <mxGeometry width="50" height="50" relative="1" as="geometry">
            <mxPoint x="300" y="320" as="sourcePoint" />
            <mxPoint x="727.8" y="385" as="targetPoint" />
            <Array as="points">
              <mxPoint x="520" y="400" />
            </Array>
          </mxGeometry>
        </mxCell>
        <mxCell id="EeiDZIce7VBrEbFo4yMd-29" value="" style="shape=waypoint;sketch=0;fillStyle=solid;size=6;pointerEvents=1;points=[];fillColor=none;resizable=0;rotatable=0;perimeter=centerPerimeter;snapToPoint=1;" parent="1" vertex="1">
          <mxGeometry x="290" y="245" width="20" height="20" as="geometry" />
        </mxCell>
        <mxCell id="EeiDZIce7VBrEbFo4yMd-31" value="y2" style="text;strokeColor=none;align=center;fillColor=none;html=1;verticalAlign=middle;whiteSpace=wrap;rounded=0;" parent="1" vertex="1">
          <mxGeometry x="390" y="230" width="20" height="20" as="geometry" />
        </mxCell>
        <mxCell id="EeiDZIce7VBrEbFo4yMd-32" value="" style="shape=waypoint;sketch=0;fillStyle=solid;size=6;pointerEvents=1;points=[];fillColor=none;resizable=0;rotatable=0;perimeter=centerPerimeter;snapToPoint=1;" parent="1" vertex="1">
          <mxGeometry x="390" y="245" width="20" height="20" as="geometry" />
        </mxCell>
        <mxCell id="EeiDZIce7VBrEbFo4yMd-33" value="" style="edgeStyle=elbowEdgeStyle;elbow=horizontal;endArrow=classic;html=1;curved=0;rounded=0;endSize=8;startSize=8;entryX=0;entryY=0;entryDx=50;entryDy=40;entryPerimeter=0;" parent="1" source="EeiDZIce7VBrEbFo4yMd-32" target="EeiDZIce7VBrEbFo4yMd-9" edge="1">
          <mxGeometry width="50" height="50" relative="1" as="geometry">
            <mxPoint x="490" y="330" as="sourcePoint" />
            <mxPoint x="700" y="360" as="targetPoint" />
            <Array as="points">
              <mxPoint x="420" y="390" />
            </Array>
          </mxGeometry>
        </mxCell>
        <mxCell id="EeiDZIce7VBrEbFo4yMd-35" value="y3" style="text;strokeColor=none;align=center;fillColor=none;html=1;verticalAlign=middle;whiteSpace=wrap;rounded=0;" parent="1" vertex="1">
          <mxGeometry x="500" y="230" width="20" height="20" as="geometry" />
        </mxCell>
        <mxCell id="EeiDZIce7VBrEbFo4yMd-36" value="" style="shape=waypoint;sketch=0;fillStyle=solid;size=6;pointerEvents=1;points=[];fillColor=none;resizable=0;rotatable=0;perimeter=centerPerimeter;snapToPoint=1;" parent="1" vertex="1">
          <mxGeometry x="494" y="245" width="20" height="20" as="geometry" />
        </mxCell>
        <mxCell id="EeiDZIce7VBrEbFo4yMd-37" value="" style="edgeStyle=segmentEdgeStyle;endArrow=classic;html=1;curved=0;rounded=0;endSize=8;startSize=8;entryX=0.488;entryY=0.995;entryDx=0;entryDy=0;entryPerimeter=0;" parent="1" source="EeiDZIce7VBrEbFo4yMd-36" target="EeiDZIce7VBrEbFo4yMd-9" edge="1">
          <mxGeometry width="50" height="50" relative="1" as="geometry">
            <mxPoint x="490" y="330" as="sourcePoint" />
            <mxPoint x="540" y="280" as="targetPoint" />
            <Array as="points">
              <mxPoint x="504" y="380" />
              <mxPoint x="719" y="380" />
            </Array>
          </mxGeometry>
        </mxCell>
        <mxCell id="EeiDZIce7VBrEbFo4yMd-38" value="yn" style="text;strokeColor=none;align=center;fillColor=none;html=1;verticalAlign=middle;whiteSpace=wrap;rounded=0;" parent="1" vertex="1">
          <mxGeometry x="540" y="230" width="20" height="20" as="geometry" />
        </mxCell>
        <mxCell id="EeiDZIce7VBrEbFo4yMd-39" value="y(n+1)" style="text;strokeColor=none;align=center;fillColor=none;html=1;verticalAlign=middle;whiteSpace=wrap;rounded=0;" parent="1" vertex="1">
          <mxGeometry x="640" y="230" width="20" height="20" as="geometry" />
        </mxCell>
        <mxCell id="EeiDZIce7VBrEbFo4yMd-40" value="" style="shape=waypoint;sketch=0;fillStyle=solid;size=6;pointerEvents=1;points=[];fillColor=none;resizable=0;rotatable=0;perimeter=centerPerimeter;snapToPoint=1;" parent="1" vertex="1">
          <mxGeometry x="530" y="245" width="20" height="20" as="geometry" />
        </mxCell>
        <mxCell id="EeiDZIce7VBrEbFo4yMd-44" value="" style="edgeStyle=segmentEdgeStyle;endArrow=classic;html=1;curved=0;rounded=0;endSize=8;startSize=8;entryX=0.312;entryY=1.046;entryDx=0;entryDy=0;entryPerimeter=0;" parent="1" source="EeiDZIce7VBrEbFo4yMd-40" target="EeiDZIce7VBrEbFo4yMd-9" edge="1">
          <mxGeometry width="50" height="50" relative="1" as="geometry">
            <mxPoint x="514" y="265" as="sourcePoint" />
            <mxPoint x="729" y="285" as="targetPoint" />
            <Array as="points">
              <mxPoint x="540" y="300" />
              <mxPoint x="705" y="300" />
            </Array>
          </mxGeometry>
        </mxCell>
        <mxCell id="EeiDZIce7VBrEbFo4yMd-45" value="0,1,2,3,...,n, n+1" style="text;strokeColor=none;align=center;fillColor=none;html=1;verticalAlign=middle;whiteSpace=wrap;rounded=0;" parent="1" vertex="1">
          <mxGeometry x="620" y="315" width="100" height="20" as="geometry" />
        </mxCell>
        <mxCell id="EeiDZIce7VBrEbFo4yMd-46" value="" style="shape=curlyBracket;whiteSpace=wrap;html=1;rounded=1;labelPosition=left;verticalLabelPosition=middle;align=right;verticalAlign=middle;rotation=90;" parent="1" vertex="1">
          <mxGeometry x="464" y="70" width="20" height="310" as="geometry" />
        </mxCell>
        <mxCell id="EeiDZIce7VBrEbFo4yMd-48" value="n" style="text;strokeColor=none;align=center;fillColor=none;html=1;verticalAlign=middle;whiteSpace=wrap;rounded=0;" parent="1" vertex="1">
          <mxGeometry x="444" y="190" width="60" height="30" as="geometry" />
        </mxCell>
        <mxCell id="EeiDZIce7VBrEbFo4yMd-50" value="" style="shape=curlyBracket;whiteSpace=wrap;html=1;rounded=1;flipH=1;labelPosition=right;verticalLabelPosition=middle;align=left;verticalAlign=middle;rotation=90;" parent="1" vertex="1">
          <mxGeometry x="665" y="300" width="10" height="80" as="geometry" />
        </mxCell>
        <mxCell id="EeiDZIce7VBrEbFo4yMd-51" value="n+2" style="text;strokeColor=none;align=center;fillColor=none;html=1;verticalAlign=middle;whiteSpace=wrap;rounded=0;" parent="1" vertex="1">
          <mxGeometry x="655" y="335" width="30" height="30" as="geometry" />
        </mxCell>
        <mxCell id="EeiDZIce7VBrEbFo4yMd-52" value="" style="endArrow=classic;html=1;rounded=0;entryX=0;entryY=0.5;entryDx=0;entryDy=0;" parent="1" target="EeiDZIce7VBrEbFo4yMd-1" edge="1">
          <mxGeometry width="50" height="50" relative="1" as="geometry">
            <mxPoint x="120" y="255" as="sourcePoint" />
            <mxPoint x="810" y="330" as="targetPoint" />
          </mxGeometry>
        </mxCell>
        <mxCell id="EeiDZIce7VBrEbFo4yMd-54" value="" style="endArrow=classic;html=1;rounded=0;exitX=1;exitY=0.5;exitDx=0;exitDy=0;" parent="1" source="EeiDZIce7VBrEbFo4yMd-2" edge="1">
          <mxGeometry width="50" height="50" relative="1" as="geometry">
            <mxPoint x="760" y="380" as="sourcePoint" />
            <mxPoint x="880" y="255" as="targetPoint" />
          </mxGeometry>
        </mxCell>
        <mxCell id="EeiDZIce7VBrEbFo4yMd-55" value="[bs, c, w, h]" style="text;strokeColor=none;align=center;fillColor=none;html=1;verticalAlign=middle;whiteSpace=wrap;rounded=0;" parent="1" vertex="1">
          <mxGeometry x="80" y="220" width="80" height="30" as="geometry" />
        </mxCell>
        <mxCell id="EeiDZIce7VBrEbFo4yMd-56" value="[bs, c, w, h]" style="text;strokeColor=none;align=center;fillColor=none;html=1;verticalAlign=middle;whiteSpace=wrap;rounded=0;" parent="1" vertex="1">
          <mxGeometry x="860" y="220" width="80" height="30" as="geometry" />
        </mxCell>
        <mxCell id="EeiDZIce7VBrEbFo4yMd-57" value="[bs, c/2, w, h]" style="text;strokeColor=none;align=center;fillColor=none;html=1;verticalAlign=middle;whiteSpace=wrap;rounded=0;" parent="1" vertex="1">
          <mxGeometry x="180" y="310" width="80" height="30" as="geometry" />
        </mxCell>
        <mxCell id="EeiDZIce7VBrEbFo4yMd-58" value="[bs, c/2, w, h]" style="text;strokeColor=none;align=center;fillColor=none;html=1;verticalAlign=middle;whiteSpace=wrap;rounded=0;" parent="1" vertex="1">
          <mxGeometry x="260" y="200" width="80" height="30" as="geometry" />
        </mxCell>
        <mxCell id="EeiDZIce7VBrEbFo4yMd-59" value="[bs, c/2, w, h]" style="text;strokeColor=none;align=center;fillColor=none;html=1;verticalAlign=middle;whiteSpace=wrap;rounded=0;" parent="1" vertex="1">
          <mxGeometry x="350" y="310" width="80" height="30" as="geometry" />
        </mxCell>
        <mxCell id="EeiDZIce7VBrEbFo4yMd-60" value="[bs, (n+2)c/2, w, h]" style="text;strokeColor=none;align=center;fillColor=none;html=1;verticalAlign=middle;whiteSpace=wrap;rounded=0;" parent="1" vertex="1">
          <mxGeometry x="730" y="205" width="110" height="30" as="geometry" />
        </mxCell>
        <mxCell id="EeiDZIce7VBrEbFo4yMd-67" value="CBS" style="rounded=0;whiteSpace=wrap;html=1;fillColor=#d5e8d4;strokeColor=#82b366;" parent="1" vertex="1">
          <mxGeometry x="190" y="95" width="70" height="30" as="geometry" />
        </mxCell>
        <mxCell id="EeiDZIce7VBrEbFo4yMd-68" value="" style="endArrow=classic;html=1;rounded=0;entryX=0;entryY=0.5;entryDx=0;entryDy=0;fillColor=#008a00;strokeColor=#005700;" parent="1" target="EeiDZIce7VBrEbFo4yMd-67" edge="1">
          <mxGeometry width="50" height="50" relative="1" as="geometry">
            <mxPoint x="150" y="110" as="sourcePoint" />
            <mxPoint x="520" y="-70" as="targetPoint" />
          </mxGeometry>
        </mxCell>
        <mxCell id="EeiDZIce7VBrEbFo4yMd-69" value="CBS" style="rounded=0;whiteSpace=wrap;html=1;fillColor=#d5e8d4;strokeColor=#82b366;" parent="1" vertex="1">
          <mxGeometry x="290" y="95" width="70" height="30" as="geometry" />
        </mxCell>
        <mxCell id="EeiDZIce7VBrEbFo4yMd-70" value="" style="endArrow=classic;html=1;rounded=0;entryX=0;entryY=0.529;entryDx=0;entryDy=0;exitX=1;exitY=0.5;exitDx=0;exitDy=0;entryPerimeter=0;fillColor=#f0a30a;strokeColor=#BD7000;" parent="1" source="EeiDZIce7VBrEbFo4yMd-67" target="EeiDZIce7VBrEbFo4yMd-69" edge="1">
          <mxGeometry width="50" height="50" relative="1" as="geometry">
            <mxPoint x="160" y="120" as="sourcePoint" />
            <mxPoint x="200" y="120" as="targetPoint" />
          </mxGeometry>
        </mxCell>
        <mxCell id="EeiDZIce7VBrEbFo4yMd-71" value="" style="shape=orEllipse;perimeter=ellipsePerimeter;whiteSpace=wrap;html=1;backgroundOutline=1;" parent="1" vertex="1">
          <mxGeometry x="387" y="100" width="16" height="20" as="geometry" />
        </mxCell>
        <mxCell id="EeiDZIce7VBrEbFo4yMd-72" value="" style="endArrow=classic;html=1;rounded=0;entryX=0;entryY=0.5;entryDx=0;entryDy=0;exitX=1;exitY=0.5;exitDx=0;exitDy=0;fillColor=#fa6800;strokeColor=#C73500;" parent="1" source="EeiDZIce7VBrEbFo4yMd-69" target="EeiDZIce7VBrEbFo4yMd-71" edge="1">
          <mxGeometry width="50" height="50" relative="1" as="geometry">
            <mxPoint x="270" y="120" as="sourcePoint" />
            <mxPoint x="300" y="121" as="targetPoint" />
          </mxGeometry>
        </mxCell>
        <mxCell id="EeiDZIce7VBrEbFo4yMd-73" value="" style="shape=waypoint;sketch=0;fillStyle=solid;size=6;pointerEvents=1;points=[];fillColor=#008a00;resizable=0;rotatable=0;perimeter=centerPerimeter;snapToPoint=1;fontColor=#ffffff;strokeColor=#005700;" parent="1" vertex="1">
          <mxGeometry x="160" y="100" width="20" height="20" as="geometry" />
        </mxCell>
        <mxCell id="EeiDZIce7VBrEbFo4yMd-75" value="" style="edgeStyle=segmentEdgeStyle;endArrow=classic;html=1;curved=0;rounded=0;endSize=8;startSize=8;entryX=0.5;entryY=0;entryDx=0;entryDy=0;fillColor=#008a00;strokeColor=#005700;" parent="1" source="EeiDZIce7VBrEbFo4yMd-73" target="EeiDZIce7VBrEbFo4yMd-71" edge="1">
          <mxGeometry width="50" height="50" relative="1" as="geometry">
            <mxPoint x="370" y="100" as="sourcePoint" />
            <mxPoint x="420" y="50" as="targetPoint" />
            <Array as="points">
              <mxPoint x="170" y="80" />
              <mxPoint x="395" y="80" />
            </Array>
          </mxGeometry>
        </mxCell>
        <mxCell id="EeiDZIce7VBrEbFo4yMd-78" value="" style="endArrow=classic;html=1;rounded=0;exitX=1;exitY=0.5;exitDx=0;exitDy=0;" parent="1" source="EeiDZIce7VBrEbFo4yMd-71" edge="1">
          <mxGeometry width="50" height="50" relative="1" as="geometry">
            <mxPoint x="464" y="125" as="sourcePoint" />
            <mxPoint x="440" y="110" as="targetPoint" />
          </mxGeometry>
        </mxCell>
        <mxCell id="8X_-OS3C_n1zWFdyqqBd-1" value="&lt;font color=&quot;#66ff66&quot;&gt;[bs, c/2, w, h]&lt;/font&gt;" style="text;strokeColor=none;align=center;fillColor=none;html=1;verticalAlign=middle;whiteSpace=wrap;rounded=0;" vertex="1" parent="1">
          <mxGeometry x="90" y="80" width="80" height="30" as="geometry" />
        </mxCell>
        <mxCell id="8X_-OS3C_n1zWFdyqqBd-2" value="&lt;font color=&quot;#ffb570&quot;&gt;[bs, c/2, w, h]&lt;/font&gt;" style="text;strokeColor=none;align=center;fillColor=none;html=1;verticalAlign=middle;whiteSpace=wrap;rounded=0;" vertex="1" parent="1">
          <mxGeometry x="230" y="125" width="80" height="30" as="geometry" />
        </mxCell>
        <mxCell id="8X_-OS3C_n1zWFdyqqBd-3" value="&lt;font color=&quot;#ff3333&quot;&gt;[bs, c/2, w, h]&lt;/font&gt;" style="text;strokeColor=none;align=center;fillColor=none;html=1;verticalAlign=middle;whiteSpace=wrap;rounded=0;" vertex="1" parent="1">
          <mxGeometry x="330" y="125" width="80" height="30" as="geometry" />
        </mxCell>
        <mxCell id="8X_-OS3C_n1zWFdyqqBd-4" value="[bs, c/2, w, h]" style="text;strokeColor=none;align=center;fillColor=none;html=1;verticalAlign=middle;whiteSpace=wrap;rounded=0;" vertex="1" parent="1">
          <mxGeometry x="410" y="80" width="80" height="30" as="geometry" />
        </mxCell>
        <mxCell id="8X_-OS3C_n1zWFdyqqBd-8" value="" style="shape=partialRectangle;whiteSpace=wrap;html=1;bottom=0;right=0;fillColor=none;" vertex="1" parent="1">
          <mxGeometry x="820" y="360" width="120" height="60" as="geometry" />
        </mxCell>
        <mxCell id="8X_-OS3C_n1zWFdyqqBd-11" value="" style="shape=partialRectangle;whiteSpace=wrap;html=1;bottom=0;right=0;fillColor=none;" vertex="1" parent="1">
          <mxGeometry x="434" y="120" width="106" height="50" as="geometry" />
        </mxCell>
        <mxCell id="8X_-OS3C_n1zWFdyqqBd-9" value="&lt;h3&gt;&lt;font color=&quot;#ea6b66&quot;&gt;C2fT&lt;/font&gt;&lt;/h3&gt;" style="text;strokeColor=none;align=center;fillColor=none;html=1;verticalAlign=middle;whiteSpace=wrap;rounded=0;" vertex="1" parent="1">
          <mxGeometry x="840" y="375" width="60" height="30" as="geometry" />
        </mxCell>
        <mxCell id="8X_-OS3C_n1zWFdyqqBd-16" value="BottleneckT&lt;br style=&quot;border-color: var(--border-color);&quot;&gt;1" style="rounded=0;whiteSpace=wrap;html=1;" vertex="1" parent="1">
          <mxGeometry x="320" y="240" width="70" height="30" as="geometry" />
        </mxCell>
        <mxCell id="8X_-OS3C_n1zWFdyqqBd-17" value="BottleneckT&lt;br style=&quot;border-color: var(--border-color);&quot;&gt;2" style="rounded=0;whiteSpace=wrap;html=1;" vertex="1" parent="1">
          <mxGeometry x="424" y="240" width="70" height="30" as="geometry" />
        </mxCell>
        <mxCell id="8X_-OS3C_n1zWFdyqqBd-18" value="BottleneckT&lt;br style=&quot;border-color: var(--border-color);&quot;&gt;n" style="rounded=0;whiteSpace=wrap;html=1;" vertex="1" parent="1">
          <mxGeometry x="560" y="240" width="70" height="30" as="geometry" />
        </mxCell>
        <mxCell id="8X_-OS3C_n1zWFdyqqBd-19" value="BottleneckT" style="rounded=0;whiteSpace=wrap;html=1;" vertex="1" parent="1">
          <mxGeometry x="444" y="130" width="80" height="35" as="geometry" />
        </mxCell>
      </root>
    </mxGraphModel>
  </diagram>
</mxfile>
